<svg id="Layer_1" data-name="Layer 1" xmlns="http://www.w3.org/2000/svg" viewBox="0 0 22 36.01"><defs><style>.cls-1{fill:#fff;}</style></defs><title>icons-facebook1</title><path class="cls-1" d="M22,1A1.05,1.05,0,0,0,21.71.3,1,1,0,0,0,21,0H16A9.54,9.54,0,0,0,6,9v5.4H1a1,1,0,0,0-.71.29,1.05,1.05,0,0,0-.29.71v5.2a1,1,0,0,0,.29.71,1,1,0,0,0,.71.29H6V35a1,1,0,0,0,.29.71A1,1,0,0,0,7,36h6a1,1,0,0,0,.71-.29A1,1,0,0,0,14,35V21.61h5.24a1.07,1.07,0,0,0,.62-.2,1,1,0,0,0,.36-.54l1.44-5.2a1,1,0,0,0,0-.45,1,1,0,0,0-.19-.41.9.9,0,0,0-.35-.29,1,1,0,0,0-.44-.11H14V9a2,2,0,0,1,2-1.8h5a1,1,0,0,0,.71-.29A1,1,0,0,0,22,6.21Z" transform="translate(0 0)"/></svg>