<svg width="93" height="93" viewBox="0 0 93 93" fill="none" xmlns="http://www.w3.org/2000/svg">
<path d="M40.6426 22.6709L26.5468 6.40003C24.9218 4.52503 21.9426 4.53336 20.0551 6.42503L8.46347 18.0375C5.01347 21.4917 4.02597 26.6209 6.0218 30.7334C17.9452 55.4207 37.8553 75.3587 62.526 87.3167C66.6343 89.3125 71.7593 88.325 75.2093 84.8709L86.9093 73.15C88.8051 71.2542 88.8093 68.2584 86.9176 66.6334L70.5843 52.6125C68.876 51.1459 66.2218 51.3375 64.5093 53.0542L58.826 58.7459C58.535 59.0508 58.152 59.2518 57.7358 59.318C57.3195 59.3843 56.893 59.3121 56.5218 59.1125C47.232 53.7629 39.5259 46.0468 34.1885 36.75C33.9886 36.3782 33.9162 35.951 33.9824 35.534C34.0487 35.117 34.2499 34.7333 34.5551 34.4417L40.2218 28.7709C41.9385 27.0459 42.126 24.3792 40.6426 22.6667V22.6709Z" stroke="black" stroke-width="8.33333" stroke-linecap="round" stroke-linejoin="round"/>
</svg>
