<svg width="100" height="75" viewBox="0 0 100 75" fill="none" xmlns="http://www.w3.org/2000/svg">
<path d="M90.625 6.25C91.4538 6.25 92.2487 6.57924 92.8347 7.16529C93.4208 7.75134 93.75 8.5462 93.75 9.375V65.625C93.75 66.4538 93.4208 67.2487 92.8347 67.8347C92.2487 68.4208 91.4538 68.75 90.625 68.75H9.375C8.5462 68.75 7.75134 68.4208 7.16529 67.8347C6.57924 67.2487 6.25 66.4538 6.25 65.625V9.375C6.25 8.5462 6.57924 7.75134 7.16529 7.16529C7.75134 6.57924 8.5462 6.25 9.375 6.25H90.625ZM9.375 0C6.8886 0 4.50403 0.987721 2.74587 2.74587C0.98772 4.50403 0 6.8886 0 9.375L0 65.625C0 68.1114 0.98772 70.496 2.74587 72.2541C4.50403 74.0123 6.8886 75 9.375 75H90.625C93.1114 75 95.496 74.0123 97.2541 72.2541C99.0123 70.496 100 68.1114 100 65.625V9.375C100 6.8886 99.0123 4.50403 97.2541 2.74587C95.496 0.987721 93.1114 0 90.625 0H9.375Z" fill="black"/>
<path d="M43.75 21.875C43.75 21.0462 44.0793 20.2513 44.6653 19.6653C45.2514 19.0792 46.0462 18.75 46.875 18.75H78.125C78.9538 18.75 79.7487 19.0792 80.3348 19.6653C80.9208 20.2513 81.25 21.0462 81.25 21.875C81.25 22.7038 80.9208 23.4986 80.3348 24.0847C79.7487 24.6707 78.9538 25 78.125 25H46.875C46.0462 25 45.2514 24.6707 44.6653 24.0847C44.0793 23.4986 43.75 22.7038 43.75 21.875ZM34.4 16.5375C34.6911 16.8278 34.922 17.1726 35.0795 17.5523C35.237 17.9319 35.3181 18.3389 35.3181 18.75C35.3181 19.161 35.237 19.568 35.0795 19.9477C34.922 20.3273 34.6911 20.6722 34.4 20.9625L25.025 30.3375C24.7348 30.6285 24.3899 30.8594 24.0103 31.0169C23.6306 31.1745 23.2236 31.2556 22.8125 31.2556C22.4015 31.2556 21.9945 31.1745 21.6148 31.0169C21.2352 30.8594 20.8903 30.6285 20.6 30.3375L17.475 27.2125C17.1845 26.9219 16.954 26.577 16.7968 26.1974C16.6395 25.8177 16.5586 25.4109 16.5586 25C16.5586 24.1701 16.8883 23.3743 17.475 22.7875C18.0618 22.2007 18.8577 21.871 19.6875 21.871C20.5174 21.871 21.3133 22.2007 21.9 22.7875L22.8125 23.7062L29.975 16.5375C30.2653 16.2464 30.6102 16.0156 30.9898 15.858C31.3695 15.7005 31.7765 15.6194 32.1875 15.6194C32.5986 15.6194 33.0056 15.7005 33.3853 15.858C33.7649 16.0156 34.1098 16.2464 34.4 16.5375ZM43.75 46.875C43.75 46.0462 44.0793 45.2513 44.6653 44.6653C45.2514 44.0792 46.0462 43.75 46.875 43.75H78.125C78.9538 43.75 79.7487 44.0792 80.3348 44.6653C80.9208 45.2513 81.25 46.0462 81.25 46.875C81.25 47.7038 80.9208 48.4986 80.3348 49.0847C79.7487 49.6707 78.9538 50 78.125 50H46.875C46.0462 50 45.2514 49.6707 44.6653 49.0847C44.0793 48.4986 43.75 47.7038 43.75 46.875ZM34.4 41.5375C34.6911 41.8278 34.922 42.1726 35.0795 42.5523C35.237 42.9319 35.3181 43.3389 35.3181 43.75C35.3181 44.161 35.237 44.568 35.0795 44.9477C34.922 45.3273 34.6911 45.6722 34.4 45.9625L25.025 55.3375C24.7348 55.6285 24.3899 55.8594 24.0103 56.0169C23.6306 56.1745 23.2236 56.2556 22.8125 56.2556C22.4015 56.2556 21.9945 56.1745 21.6148 56.0169C21.2352 55.8594 20.8903 55.6285 20.6 55.3375L17.475 52.2125C17.1845 51.9219 16.954 51.577 16.7968 51.1974C16.6395 50.8177 16.5586 50.4109 16.5586 50C16.5586 49.5891 16.6395 49.1822 16.7968 48.8026C16.954 48.423 17.1845 48.078 17.475 47.7875C17.7656 47.4969 18.1105 47.2664 18.4901 47.1092C18.8698 46.952 19.2766 46.871 19.6875 46.871C20.0984 46.871 20.5053 46.952 20.8849 47.1092C21.2646 47.2664 21.6095 47.4969 21.9 47.7875L22.8125 48.7062L29.975 41.5375C30.2653 41.2464 30.6102 41.0156 30.9898 40.858C31.3695 40.7005 31.7765 40.6194 32.1875 40.6194C32.5986 40.6194 33.0056 40.7005 33.3853 40.858C33.7649 41.0156 34.1098 41.2464 34.4 41.5375Z" fill="black"/>
</svg>
